<?xml version="1.0" encoding="UTF-8" standalone="no"?>
<svg
   xmlns:dc="http://purl.org/dc/elements/1.1/"
   xmlns:cc="http://creativecommons.org/ns#"
   xmlns:rdf="http://www.w3.org/1999/02/22-rdf-syntax-ns#"
   xmlns:svg="http://www.w3.org/2000/svg"
   xmlns="http://www.w3.org/2000/svg"
   xmlns:sodipodi="http://sodipodi.sourceforge.net/DTD/sodipodi-0.dtd"
   xmlns:inkscape="http://www.inkscape.org/namespaces/inkscape"
   height="512pt"
   viewBox="0 0 512 512"
   width="512pt"
   version="1.1"
   id="svg26"
   sodipodi:docname="facebook.svg"
   inkscape:version="0.92.4 (5da689c313, 2019-01-14)">
  <metadata
     id="metadata32">
    <rdf:RDF>
      <cc:Work
         rdf:about="">
        <dc:format>image/svg+xml</dc:format>
        <dc:type
           rdf:resource="http://purl.org/dc/dcmitype/StillImage" />
      </cc:Work>
    </rdf:RDF>
  </metadata>
  <defs
     id="defs30" />
  <sodipodi:namedview
     pagecolor="#ffffff"
     bordercolor="#666666"
     borderopacity="1"
     objecttolerance="10"
     gridtolerance="10"
     guidetolerance="10"
     inkscape:pageopacity="0"
     inkscape:pageshadow="2"
     inkscape:window-width="1920"
     inkscape:window-height="1017"
     id="namedview28"
     showgrid="false"
     inkscape:zoom="0.9777961"
     inkscape:cx="396.87952"
     inkscape:cy="296.48168"
     inkscape:window-x="-8"
     inkscape:window-y="-8"
     inkscape:window-maximized="1"
     inkscape:current-layer="svg26" />
  <path
     d="m297.277344 508.667969c-2.132813.347656-4.273438.667969-6.421875.960937 2.148437-.292968 4.289062-.613281 6.421875-.960937zm0 0"
     id="path2" />
  <path
     d="m302.398438 507.792969c-1.019532.1875-2.039063.359375-3.058594.535156 1.019531-.175781 2.039062-.347656 3.058594-.535156zm0 0"
     id="path4" />
  <path
     d="m285.136719 510.339844c-2.496094.28125-5.007813.53125-7.527344.742187 2.519531-.210937 5.03125-.460937 7.527344-.742187zm0 0"
     id="path6" />
  <path
     d="m290.054688 509.738281c-1.199219.160157-2.40625.308594-3.609376.449219 1.203126-.140625 2.410157-.289062 3.609376-.449219zm0 0"
     id="path8" />
  <path
     d="m309.367188 506.410156c-.898438.191406-1.800782.382813-2.703126.566406.902344-.183593 1.804688-.375 2.703126-.566406zm0 0"
     id="path10" />
  <path
     d="m326.664062 502.113281c-.726562.207031-1.453124.402344-2.179687.605469.726563-.203125 1.453125-.398438 2.179687-.605469zm0 0"
     id="path12" />
  <path
     d="m321.433594 503.542969c-.789063.207031-1.582032.417969-2.375.617187.792968-.199218 1.585937-.40625 2.375-.617187zm0 0"
     id="path14" />
  <path
     d="m314.589844 505.253906c-.835938.195313-1.679688.378906-2.523438.566406.84375-.1875 1.6875-.371093 2.523438-.566406zm0 0"
     id="path16" />
  <path
     d="m277.527344 511.089844c-1.347656.113281-2.695313.214844-4.046875.304687 1.351562-.089843 2.699219-.191406 4.046875-.304687zm0 0"
     id="path18" />
  <path
     d="m272.914062 511.429688c-2.664062.171874-5.339843.308593-8.023437.398437 2.683594-.089844 5.359375-.226563 8.023437-.398437zm0 0"
     id="path22" />
  <path
     d="m264.753906 511.835938c-1.414062.046874-2.832031.082031-4.25.105468 1.417969-.023437 2.835938-.058594 4.25-.105468zm0 0"
     id="path24" />
  <path
     style="fill:#ffffff;stroke:none;stroke-width:2.16949153"
     d="M 234.15104,509.67225 C 94.44123,498.09558 -9.3838018,374.56732 2.4973804,234.05691 16.85405,64.27064 192.17147,-43.661428 350.90392,19.56461 c 88.88057,35.40276 151.27343,120.12334 158.56043,215.30232 9.01298,117.72325 -59.61533,223.21766 -170.48131,262.06129 l -11.38983,3.99061 v -93.10646 -93.10648 l 27.62244,-0.60717 27.62245,-0.6072 3.67067,-27.11865 c 2.01886,-14.91525 3.74469,-29.80338 3.83518,-33.08474 l 0.16452,-5.9661 h -31.45764 -31.45762 v -23.93409 c 0,-40.40361 4.71793,-45.48964 42.19735,-45.48964 h 22.88739 v -29.1601 c 0,-16.03805 -0.88855,-29.70926 -1.97458,-30.38046 -1.08602,-0.67119 -15.97416,-1.40405 -33.08474,-1.62856 -23.60151,-0.30968 -34.00036,0.45714 -43.08494,3.17712 -25.27216,7.56666 -42.28909,24.46471 -50.18506,49.83449 -3.14461,10.10367 -4.00966,19.86208 -4.00966,45.23215 v 32.34909 h -28.2599 -28.25989 l 0.59889,33.08475 0.59887,33.08474 27.66102,0.6072 27.66101,0.60717 v 98.64706 c 0,77.63321 -0.57768,98.58237 -2.71186,98.34346 -1.49153,-0.16705 -12.05576,-1.07785 -23.47607,-2.02416 z"
     id="path3737"
     inkscape:connector-curvature="0" />
</svg>
